<svg width="24" height="22" viewBox="0 0 24 22" fill="none" xmlns="http://www.w3.org/2000/svg">
<path fill-rule="evenodd" clip-rule="evenodd" d="M23.6025 6.33813L12.3525 0.338125C12.1321 0.220791 11.8679 0.220791 11.6475 0.338125L0.3975 6.33813C0.152987 6.46843 0.000234297 6.72293 0.000234297 7C0.000234297 7.27707 0.152987 7.53157 0.3975 7.66187L3 9.05031V13.5897C2.99922 13.9581 3.1348 14.3137 3.38063 14.5881C4.60875 15.9559 7.36031 18.25 12 18.25C13.5384 18.2627 15.0653 17.9841 16.5 17.4287V20.5C16.5 20.9142 16.8358 21.25 17.25 21.25C17.6642 21.25 18 20.9142 18 20.5V16.7041C18.978 16.1395 19.8618 15.4256 20.6194 14.5881C20.8652 14.3137 21.0008 13.9581 21 13.5897V9.05031L23.6025 7.66187C23.847 7.53157 23.9998 7.27707 23.9998 7C23.9998 6.72293 23.847 6.46843 23.6025 6.33813ZM12 16.75C7.94344 16.75 5.5575 14.7681 4.5 13.5897V9.85L11.6475 13.6619C11.8679 13.7792 12.1321 13.7792 12.3525 13.6619L16.5 11.4503V15.7947C15.3188 16.3459 13.83 16.75 12 16.75ZM19.5 13.5859C19.0504 14.0848 18.5474 14.5328 18 14.9219V10.6497L19.5 9.85V13.5859ZM17.625 9.15063L17.6044 9.13844L12.3544 6.33813C11.99 6.15199 11.5436 6.29232 11.3512 6.65349C11.1589 7.01466 11.2916 7.46336 11.6494 7.66187L16.0312 10L12 12.1497L2.34375 7L12 1.85031L21.6562 7L17.625 9.15063Z" fill="#4F7396"/>
</svg>
