<svg width="24" height="22" viewBox="0 0 24 22" fill="none" xmlns="http://www.w3.org/2000/svg">
<path d="M23.9307 5.13121C23.6996 3.97626 23.0056 3.10923 21.9758 2.71689C21.2427 2.43758 20.3878 2.42789 19.6451 2.64801C19.6637 1.56894 19.5103 0.592128 18.9283 0.411566C18.1579 0.172073 13.9901 0.0856934 11.377 0.0856934C5.11325 0.0856934 4.77042 0.430941 4.52097 0.682544C4.24515 0.958634 4.12864 1.67173 4.14532 2.59177C3.45402 2.43219 2.68818 2.47094 2.02324 2.72416C0.994767 3.11623 0.300235 3.97626 0.0693522 5.13121C-0.292579 6.93952 0.819048 8.64154 2.08083 9.56938C3.38621 10.5276 4.8821 10.9609 7.08275 10.9609C7.08706 10.9609 7.09109 10.9609 7.0954 10.9609C7.11423 10.9609 7.13173 10.9856 7.15029 10.9845C7.93659 11.8193 8.85204 12.4005 9.87945 12.7229C9.8781 12.7606 9.87729 12.812 9.8816 12.8499C10.0248 14.014 9.47042 15.2486 8.50222 15.9108C8.47531 15.9291 8.45298 15.955 8.42957 15.976C7.52756 16.057 7.39302 16.177 7.27731 16.2811C6.90838 16.6113 5.33391 20.3635 5.96682 21.2766C6.17402 21.5747 6.40921 21.9143 11.7531 21.9143C16.9235 21.9143 17.2537 21.5556 17.4725 21.3169C18.4086 20.2952 16.7761 16.7267 16.4784 16.3971C16.3482 16.2518 16.2045 16.0957 15.1494 15.9953C15.1131 15.9547 15.0722 15.9195 15.0251 15.8864C14.1352 15.2661 13.4186 14.0998 13.7418 12.8319C14.9995 12.5012 15.9868 11.7975 16.7615 10.9754C16.8078 10.9843 16.8557 10.9609 16.9041 10.9609C16.9087 10.9609 16.9128 10.9609 16.9168 10.9609C19.1183 10.9609 20.6139 10.5276 21.9184 9.56938C23.181 8.64154 24.2924 6.93952 23.9307 5.13121ZM11.7367 17.3241C13.8365 17.3241 15.0547 17.4092 15.4812 17.4786C15.7656 18.0184 16.2893 19.6025 16.335 20.2734C15.7535 20.367 14.2654 20.475 11.7534 20.475C9.52236 20.475 7.96968 20.3894 7.27004 20.307C7.41266 19.552 7.92394 18.0162 8.20864 17.4471C8.67525 17.389 9.8929 17.3241 11.7367 17.3241ZM13.033 15.91C12.6473 15.9038 12.2192 15.8912 11.7367 15.8912C11.2793 15.8912 10.8735 15.9001 10.508 15.9055C11.075 15.0678 11.3813 14.0689 11.3377 13.0609C11.4894 13.0722 11.6425 13.1136 11.7986 13.1136H11.8794C12.0037 13.1136 12.1232 13.0762 12.2426 13.0711C12.1301 14.1416 12.47 15.1178 13.033 15.91ZM5.27551 7.98737C5.5029 8.54332 5.75908 9.05164 6.03786 9.51852C4.72522 9.39097 3.77801 9.05863 2.93332 8.43837C2.06764 7.80223 1.24422 6.58028 1.48021 5.39922C1.61476 4.72783 1.97023 4.27764 2.53641 4.06156C3.1338 3.83471 3.83936 3.92567 4.27556 4.15386C4.45209 5.4221 4.7976 6.82139 5.27551 7.98737ZM16.2664 9.34549C15.1844 10.8495 13.7092 11.6118 11.8794 11.6123L11.8126 11.6118C10.0915 11.5948 8.67148 10.8088 7.59161 9.27445C5.73782 6.63948 5.49052 2.79036 5.60704 1.75219C6.19097 1.65397 7.86124 1.52373 11.3767 1.52373C14.422 1.52373 17.1692 1.62545 18.1632 1.73336C18.2948 2.91656 18.1038 6.78829 16.2664 9.34549ZM21.066 8.43837C20.1992 9.07478 19.2262 9.40819 17.8613 9.5274C18.8486 7.84986 19.27 5.95948 19.4463 4.79484C19.4708 4.63473 19.495 4.46143 19.5173 4.28195C19.5302 4.27441 19.5426 4.26876 19.555 4.25988C19.9567 3.95715 20.7804 3.80054 21.4639 4.06129C22.0301 4.27737 22.3853 4.72757 22.5204 5.39895C22.7559 6.58028 21.9316 7.8025 21.066 8.43837Z" fill="#4F7396"/>
</svg>
